<svg  viewBox="0 0 30 31" fill="none" xmlns="http://www.w3.org/2000/svg">
<g id="noun_Email_247564 1">
<g id="Group">
<path id="Vector" fill-rule="evenodd" clip-rule="evenodd" d="M3.00689 7.78639L3.15983 7.61433C3.72036 7.02819 4.55541 6.73492 5.66423 6.73492H24.6671C25.7121 6.73492 26.515 6.98995 27.0759 7.49963L27.095 7.51875C27.2097 7.62083 27.3248 7.74166 27.4391 7.88198C27.4391 7.89498 27.4456 7.9076 27.4583 7.92021L27.4774 7.93933C27.8983 8.46201 28.1083 9.20109 28.1083 10.157V20.9775C28.0956 23.2716 26.9486 24.4187 24.6671 24.4187H5.66423C3.38274 24.4061 2.24219 23.259 2.24219 20.9775V10.157C2.24219 9.12462 2.49722 8.3343 3.00689 7.78639ZM25.298 8.60845C25.1068 8.55759 24.8965 8.53809 24.6675 8.55109H5.66423C5.52391 8.53848 5.39009 8.54459 5.26276 8.57021L15.1083 18.5496L25.298 8.60845ZM4.05836 9.94668C4.04574 10.0105 4.04574 10.0805 4.05836 10.157V20.9775C4.05836 22.0611 4.59365 22.6025 5.66423 22.6025H24.6671C25.7503 22.6025 26.2921 22.0611 26.2921 20.9775V10.1761L15.7392 20.4805C15.548 20.659 15.3316 20.7481 15.0896 20.7481C14.8345 20.7355 14.6178 20.646 14.4396 20.4805L4.05836 9.94668Z" fill="#417A07"/>
<path id="Vector_2" fill-rule="evenodd" clip-rule="evenodd" d="M3.00781 7.78607C3.03343 7.74784 3.06516 7.7096 3.1034 7.67137C3.1164 7.64575 3.13513 7.62663 3.16075 7.61401L3.00781 7.78607Z" fill="#417A07"/>
</g>
</g>
</svg>
