<svg  viewBox="0 0 22 28" fill="none" xmlns="http://www.w3.org/2000/svg">
<g id="Group 3893">
<path id="Vector" d="M10.5256 27.5624C10.2233 27.5624 9.94852 27.425 9.75615 27.2052C8.76679 26.0784 0 16.1024 0 10.606C0 4.80724 4.72692 0.0803223 10.5256 0.0803223C16.3244 0.0803223 21.0513 4.80724 21.0513 10.606C21.0513 16.0749 12.2845 26.0784 11.2951 27.2052C11.1028 27.425 10.8279 27.5624 10.5256 27.5624ZM10.5256 2.16896C5.88117 2.16896 2.08864 5.96149 2.08864 10.606C2.08864 14.2336 7.61254 21.4614 10.5256 24.9241C13.4387 21.4889 18.9627 14.2336 18.9627 10.606C18.9627 5.96149 15.1701 2.16896 10.5256 2.16896Z" fill="#417A07"/>
<path id="Vector_2" d="M10.5266 16.0198C7.61346 16.0198 5.25 13.6563 5.25 10.7432C5.25 7.83013 7.61346 5.46667 10.5266 5.46667C13.4397 5.46667 15.8031 7.83013 15.8031 10.7432C15.8031 13.6563 13.4397 16.0198 10.5266 16.0198ZM10.5266 7.55531C8.76771 7.55531 7.33864 8.98438 7.33864 10.7432C7.33864 12.5021 8.76771 13.9312 10.5266 13.9312C12.2854 13.9312 13.7145 12.5021 13.7145 10.7432C13.7145 8.98438 12.2854 7.55531 10.5266 7.55531Z" fill="#417A07"/>
</g>
</svg>
