<svg viewBox="0 0 28 29" fill="none" xmlns="http://www.w3.org/2000/svg">
<g id="noun_Phone_3612570 1">
<path id="Vector" d="M14.7181 8.29353C16.0627 8.52433 17.2919 9.16039 18.2714 10.1373C19.2457 11.1115 19.8844 12.3407 20.1152 13.688C20.2038 14.2194 20.66 14.6031 21.1995 14.6031C21.2692 14.6031 21.331 14.5951 21.3739 14.587C21.3766 14.587 21.3793 14.587 21.382 14.5843C21.6745 14.536 21.9295 14.3777 22.0985 14.1335C22.2676 13.8919 22.332 13.6021 22.281 13.3149C21.9751 11.5168 21.127 9.87965 19.8254 8.57801C18.5184 7.27637 16.8785 6.42829 15.0831 6.12502H15.0804C14.4819 6.02572 13.9156 6.43097 13.8163 7.02677C13.7224 7.62794 14.125 8.19423 14.7181 8.29353Z" fill="#417A07"/>
<path id="Vector_2" d="M21.4844 17.5066C20.8832 16.8813 20.1559 16.5512 19.3803 16.5512C18.6127 16.5512 17.8801 16.8759 17.2655 17.4932L15.7384 19.0203C15.7008 19.0015 15.6633 18.9827 15.6284 18.9639L15.5505 18.9264C15.3868 18.8432 15.199 18.7492 15.0433 18.6526C13.476 17.6569 12.0455 16.3526 10.666 14.6618C10.0756 13.9184 9.66228 13.2877 9.35901 12.6597C9.74279 12.2974 10.0997 11.9351 10.4352 11.5915C10.5104 11.5164 10.5855 11.4386 10.6633 11.3607C10.7385 11.2829 10.8163 11.2051 10.8941 11.1272C11.5329 10.4885 11.871 9.74776 11.8684 8.98557C11.8684 8.22605 11.5302 7.48801 10.8941 6.85463L9.41 5.37049C9.32412 5.28461 9.23824 5.19872 9.15504 5.11284C9.07184 5.02696 8.98596 4.94108 8.90276 4.85788L8.78467 4.73711C8.49214 4.43921 8.18887 4.13057 7.88292 3.84877C7.28712 3.25565 6.56517 2.94165 5.80029 2.94165C5.03809 2.94165 4.31078 3.25565 3.69082 3.84877C3.68814 3.85146 3.68546 3.85146 3.68546 3.85414L1.82558 5.71133C1.06607 6.47085 0.633978 7.39676 0.540045 8.46222V8.46491C0.440744 9.72629 0.668867 11.0575 1.2593 12.6543C2.15301 15.0697 3.49491 17.308 5.47824 19.6966C7.89902 22.5817 10.8056 24.8576 14.1147 26.4598H14.1174C15.3922 27.069 17.1045 27.7829 19.0368 27.909C19.0395 27.909 19.0422 27.909 19.0448 27.909H19.0583C19.1683 27.9144 19.2837 27.9198 19.4045 27.9198C20.7598 27.9198 21.9031 27.4286 22.7995 26.4598L22.8129 26.4464C22.8236 26.4356 22.8317 26.4276 22.8397 26.4168C23.1081 26.0948 23.4167 25.7969 23.763 25.4641C24.0018 25.236 24.246 25.0025 24.4822 24.7502C25.0914 24.1141 25.4135 23.3734 25.4108 22.6085C25.4081 21.841 25.0807 21.1083 24.4634 20.491L21.4844 17.5066ZM21.1892 24.9864C20.7115 25.4963 20.164 25.7244 19.4179 25.7244C19.3481 25.7244 19.2703 25.7191 19.1898 25.7137C17.6439 25.6144 16.1812 25.0025 15.0809 24.4791C12.0428 23.0165 9.38048 20.9338 7.16634 18.2876C5.35478 16.1057 4.13365 14.0714 3.32583 11.8921C2.84274 10.5958 2.66025 9.5921 2.73539 8.64472C2.7837 8.09186 2.99035 7.65172 3.38487 7.26257L5.23133 5.41611C5.42456 5.23093 5.62316 5.13163 5.80834 5.13163C5.98279 5.13163 6.16797 5.22825 6.36389 5.4188C6.36657 5.42148 6.36926 5.42416 6.37194 5.42685C6.69131 5.72743 7.00263 6.04412 7.33274 6.37691L7.34348 6.38765C7.50182 6.55136 7.68432 6.73923 7.8695 6.91904L9.35096 8.4005C9.78305 8.83259 9.78305 9.13586 9.35096 9.56795C9.1953 9.72361 9.03695 9.88195 8.88129 10.043L8.77126 10.1557C8.35527 10.5771 7.96343 10.9743 7.53671 11.3527C7.53134 11.358 7.52329 11.3634 7.51792 11.3715L7.49108 11.3983C7.03752 11.8519 6.91407 12.394 7.12609 13.0059C7.13145 13.022 7.13682 13.0354 7.14219 13.0488C7.14487 13.0569 7.14756 13.0649 7.15293 13.073C7.55013 14.0311 8.10836 14.9409 8.96717 16.0279C8.96717 16.0305 8.96986 16.0305 8.96986 16.0332C10.4943 17.9092 12.1019 19.3745 13.8866 20.5071C14.1201 20.6547 14.3616 20.7782 14.587 20.8909C14.7534 20.9741 14.9413 21.0707 15.097 21.1646C15.1077 21.1727 15.1184 21.1781 15.1292 21.1834L15.1372 21.1888C15.1533 21.1968 15.1694 21.2076 15.1882 21.2156C15.4217 21.3337 15.6525 21.3901 15.8914 21.3901C16.2993 21.3901 16.675 21.221 16.9783 20.9016L18.8355 19.0444C18.9697 18.9103 19.179 18.7492 19.3991 18.7492C19.6031 18.7492 19.8017 18.9076 19.9305 19.0418C19.9332 19.0444 19.9332 19.0444 19.9359 19.0471L22.9337 22.0449C23.2289 22.3401 23.4302 22.689 22.9095 23.2365L22.9068 23.2392C22.7431 23.4164 22.5687 23.5854 22.3835 23.7652C22.3432 23.8028 22.303 23.8431 22.2627 23.8833C21.887 24.2349 21.5274 24.5838 21.1892 24.9864Z" fill="#417A07"/>
<path id="Vector_3" d="M26.947 13.1001C26.4532 10.1935 25.0791 7.54196 22.9723 5.43517C20.8575 3.32571 18.2059 1.9516 15.2966 1.46047C14.6981 1.36117 14.1319 1.76642 14.0326 2.36222C13.9333 2.96071 14.3385 3.52699 14.9316 3.62629C17.3927 4.04497 19.6336 5.20973 21.4157 6.98909C23.1977 8.77114 24.3598 11.0121 24.7785 13.4705C24.867 14.0019 25.3233 14.3856 25.8627 14.3856C25.8654 14.3856 25.8681 14.3856 25.8708 14.3856C25.9379 14.3856 25.9942 14.3776 26.0372 14.3695C26.0399 14.3695 26.0426 14.3695 26.0452 14.3669C26.3378 14.3185 26.5927 14.1602 26.7618 13.916C26.9336 13.6771 26.998 13.3873 26.947 13.1001Z" fill="#417A07"/>
</g>
</svg>
