<svg width="53" height="54" viewBox="0 0 53 54" fill="none" xmlns="http://www.w3.org/2000/svg">
<g id="ph:arrow-up-light">
<path id="Vector" d="M24.1904 11.3401C24.4216 11.5717 24.5515 11.8855 24.5515 12.2127C24.5515 12.5399 24.4216 12.8538 24.1904 13.0853L11.4823 25.7955L44.7209 25.7955C45.0484 25.7955 45.3625 25.9255 45.594 26.1571C45.8256 26.3887 45.9557 26.7028 45.9557 27.0302C45.9557 27.3577 45.8256 27.6718 45.594 27.9034C45.3625 28.1349 45.0484 28.265 44.7209 28.265L11.4823 28.265L24.1904 40.9752C24.4085 41.2093 24.5273 41.5189 24.5216 41.8387C24.516 42.1586 24.3864 42.4639 24.1602 42.6901C23.9339 42.9163 23.6287 43.0459 23.3088 43.0516C22.9889 43.0572 22.6793 42.9385 22.4452 42.7204L7.62772 27.9028C7.39648 27.6713 7.2666 27.3575 7.2666 27.0302C7.2666 26.703 7.39648 26.3892 7.62772 26.1577L22.4452 11.3401C22.6768 11.1089 22.9906 10.979 23.3178 10.979C23.645 10.979 23.9589 11.1089 24.1904 11.3401Z" fill="#256001"/>
</g>
</svg>
