<svg width="54" height="54" viewBox="0 0 54 54" fill="none" xmlns="http://www.w3.org/2000/svg">
<g id="ph:arrow-up-light">
<path id="Vector" d="M29.518 42.7263C29.2879 42.4937 29.1595 42.1792 29.161 41.852C29.1626 41.5248 29.294 41.2116 29.5263 40.9811L42.2948 28.3317L9.05663 28.1733C8.72915 28.1717 8.4157 28.0401 8.18524 27.8075C7.95477 27.5748 7.82618 27.2601 7.82774 26.9326C7.8293 26.6051 7.96089 26.2917 8.19356 26.0612C8.42623 25.8308 8.74092 25.7022 9.0684 25.7037L42.3066 25.8622L29.6593 13.0916C29.4423 12.8565 29.325 12.5463 29.3322 12.2264C29.3393 11.9066 29.4704 11.602 29.6977 11.3768C29.925 11.1517 30.2308 11.0235 30.5507 11.0194C30.8707 11.0153 31.1797 11.1355 31.4127 11.3548L46.1594 26.2427C46.3896 26.4754 46.518 26.7898 46.5164 27.117C46.5148 27.4442 46.3835 27.7575 46.1511 27.9879L31.2631 42.7346C31.0305 42.9647 30.7161 43.0931 30.3888 43.0916C30.0616 43.09 29.7484 42.9586 29.518 42.7263Z" fill="#256001"/>
</g>
</svg>
