<svg width="53" height="54" viewBox="0 0 53 54" fill="none" xmlns="http://www.w3.org/2000/svg">
<g id="ph:arrow-up-light">
<path id="Vector" d="M24.081 11.0075C24.3123 11.239 24.4422 11.5529 24.4422 11.8801C24.4422 12.2073 24.3123 12.5211 24.081 12.7527L11.373 25.4628L44.6115 25.4628C44.939 25.4628 45.2531 25.5929 45.4847 25.8245C45.7162 26.056 45.8463 26.3701 45.8463 26.6976C45.8463 27.0251 45.7162 27.3392 45.4847 27.5707C45.2531 27.8023 44.939 27.9324 44.6115 27.9324L11.373 27.9324L24.081 40.6425C24.2992 40.8766 24.4179 41.1862 24.4123 41.5061C24.4066 41.826 24.277 42.1312 24.0508 42.3575C23.8245 42.5837 23.5193 42.7133 23.1994 42.7189C22.8795 42.7246 22.5699 42.6058 22.3359 42.3877L7.51835 27.5702C7.28711 27.3387 7.15723 27.0248 7.15723 26.6976C7.15723 26.3704 7.28711 26.0565 7.51834 25.825L22.3359 11.0075C22.5674 10.7763 22.8812 10.6464 23.2085 10.6464C23.5357 10.6464 23.8495 10.7763 24.081 11.0075Z" fill="#256001"/>
</g>
</svg>
