<svg width="54" height="54" viewBox="0 0 54 54" fill="none" xmlns="http://www.w3.org/2000/svg">
<g id="ph:arrow-up-light" clip-path="url(#clip0_58_107)">
<path id="Vector" d="M29.3809 21.3285C29.1496 21.5601 29.0198 21.8739 29.0198 22.2011C29.0198 22.5283 29.1496 22.8422 29.3809 23.0737L42.089 35.7839L8.85038 35.7839C8.52289 35.7839 8.20882 35.9139 7.97725 36.1455C7.74568 36.3771 7.61559 36.6912 7.61559 37.0186C7.61559 37.3461 7.74568 37.6602 7.97725 37.8918C8.20882 38.1233 8.52289 38.2534 8.85038 38.2534L42.089 38.2534L29.3809 50.9636C29.1628 51.1977 29.044 51.5073 29.0497 51.8272C29.0553 52.147 29.1849 52.4523 29.4111 52.6785C29.6374 52.9047 29.9426 53.0343 30.2625 53.04C30.5824 53.0456 30.892 52.9269 31.126 52.7088L45.9436 37.8912C46.1748 37.6597 46.3047 37.3459 46.3047 37.0187C46.3047 36.6914 46.1748 36.3776 45.9436 36.1461L31.126 21.3285C30.8945 21.0973 30.5807 20.9674 30.2535 20.9674C29.9262 20.9674 29.6124 21.0973 29.3809 21.3285Z" fill="#256001"/>
</g>
<defs>
<clipPath id="clip0_58_107">
<rect width="52.6845" height="52.6845" fill="white" transform="matrix(4.37114e-08 -1 -1 -4.37114e-08 53.3027 53.0402)"/>
</clipPath>
</defs>
</svg>
