<svg width="40" height="39" viewBox="0 0 40 39" fill="none" xmlns="http://www.w3.org/2000/svg">
<g id="heroicons-solid:menu-alt-3">
<path id="Vector" fill-rule="evenodd" clip-rule="evenodd" d="M6.55103 10.1489C6.55103 9.64499 6.75647 9.16172 7.12217 8.8054C7.48786 8.44908 7.98385 8.2489 8.50103 8.2489H31.901C32.4182 8.2489 32.9142 8.44908 33.2799 8.8054C33.6456 9.16172 33.851 9.64499 33.851 10.1489C33.851 10.6528 33.6456 11.1361 33.2799 11.4924C32.9142 11.8487 32.4182 12.0489 31.901 12.0489H8.50103C7.98385 12.0489 7.48786 11.8487 7.12217 11.4924C6.75647 11.1361 6.55103 10.6528 6.55103 10.1489ZM6.55103 19.6489C6.55103 19.145 6.75647 18.6617 7.12217 18.3054C7.48786 17.9491 7.98385 17.7489 8.50103 17.7489H31.901C32.4182 17.7489 32.9142 17.9491 33.2799 18.3054C33.6456 18.6617 33.851 19.145 33.851 19.6489C33.851 20.1528 33.6456 20.6361 33.2799 20.9924C32.9142 21.3487 32.4182 21.5489 31.901 21.5489H8.50103C7.98385 21.5489 7.48786 21.3487 7.12217 20.9924C6.75647 20.6361 6.55103 20.1528 6.55103 19.6489ZM18.251 29.1489C18.251 28.645 18.4565 28.1617 18.8222 27.8054C19.1879 27.4491 19.6839 27.2489 20.201 27.2489H31.901C32.4182 27.2489 32.9142 27.4491 33.2799 27.8054C33.6456 28.1617 33.851 28.645 33.851 29.1489C33.851 29.6528 33.6456 30.1361 33.2799 30.4924C32.9142 30.8487 32.4182 31.0489 31.901 31.0489H20.201C19.6839 31.0489 19.1879 30.8487 18.8222 30.4924C18.4565 30.1361 18.251 29.6528 18.251 29.1489Z" fill="#508D0F"/>
</g>
</svg>
