<svg   viewBox="0 0 49 50" fill="none" xmlns="http://www.w3.org/2000/svg">
<path id="Vector" d="M18.0625 6.946C18.0625 3.61234 20.8127 0.9104 24.2067 0.9104C27.6007 0.9104 30.1337 3.61234 30.1337 6.946C30.1337 10.2797 27.5987 12.9816 24.2067 12.9816C20.8147 12.9816 18.0625 10.2797 18.0625 6.946ZM47.4357 32.4223L39.7665 27.4067L37.135 23.1214C34.8173 19.3492 30.6266 17.0033 26.1985 17.0033H22.5167C17.8653 17.0033 13.568 19.5282 11.3046 23.5902L8.60669 28.4348L0.973661 33.4282C0.0441782 34.0358 -0.217365 35.2832 0.390219 36.2126C0.776498 36.8021 1.4203 37.124 2.07616 37.124C2.4544 37.124 2.83464 37.0174 3.17464 36.7961L11.2221 31.535C11.4937 31.358 11.7211 31.1146 11.878 30.8309L14.8173 25.5518C15.1875 24.8858 15.6422 24.2863 16.1552 23.7511V37.8583L5.83433 42.715C4.44816 43.5077 3.79229 45.0749 4.20271 46.616C4.61313 48.1571 5.95907 49.1952 7.55649 49.1952H14.1433C15.2539 49.1952 16.1552 48.2939 16.1552 47.1834C16.1552 46.0728 15.2539 45.1715 14.1433 45.1715H10.0512L19.0221 40.9566C19.7283 40.6247 20.1789 39.9145 20.1789 39.1359V21.3449C20.9294 21.1377 21.714 21.0291 22.5147 21.0291H26.1964C26.8865 21.0291 27.5665 21.1216 28.2264 21.2806V39.1359C28.2264 39.9165 28.6771 40.6247 29.3832 40.9566L38.3662 45.1715H22.1928C21.0823 45.1715 20.181 46.0728 20.181 47.1834C20.181 48.2939 21.0823 49.1952 22.1928 49.1952H40.8509C42.4463 49.1952 43.7943 48.1591 44.2047 46.616C44.6151 45.0729 43.9592 43.5057 42.4302 42.6385L32.2522 37.8563V23.4473C32.8074 23.9704 33.3004 24.5659 33.7067 25.2278L36.5737 29.8974C36.7286 30.1489 36.9378 30.3662 37.1873 30.5271L45.2347 35.7881C46.1662 36.3977 47.4116 36.1362 48.0192 35.2047C48.6268 34.2732 48.3652 33.0279 47.4357 32.4203V32.4223Z" fill="url(#paint0_linear_54_40)"/>
<defs>
<linearGradient id="paint0_linear_54_40" x1="24.2047" y1="0.9104" x2="24.2047" y2="49.1952" gradientUnits="userSpaceOnUse">
<stop stop-color="#C2D205"/>
<stop offset="1" stop-color="#3C870E"/>
</linearGradient>
</defs>
</svg>
