<svg  viewBox="0 0 46 47" fill="none" xmlns="http://www.w3.org/2000/svg">
<g id="calendar-day 1" clip-path="url(#clip0_54_43)">
<path id="Vector" d="M15.6143 23.4791H11.8643C9.79613 23.4791 8.11426 25.1983 8.11426 27.3124V31.1457C8.11426 33.2598 9.79613 34.9791 11.8643 34.9791H15.6143C17.6824 34.9791 19.3643 33.2598 19.3643 31.1457V27.3124C19.3643 25.1983 17.6824 23.4791 15.6143 23.4791ZM11.8643 31.1457V27.3124H15.6143V31.1457H11.8643ZM36.2393 4.3124H34.3643V2.39573C34.3643 1.33773 33.5261 0.479065 32.4893 0.479065C31.4524 0.479065 30.6143 1.33773 30.6143 2.39573V4.3124H15.6143V2.39573C15.6143 1.33773 14.7761 0.479065 13.7393 0.479065C12.7024 0.479065 11.8643 1.33773 11.8643 2.39573V4.3124H9.98926C4.81988 4.3124 0.614258 8.61148 0.614258 13.8957V36.8957C0.614258 42.18 4.81988 46.4791 9.98926 46.4791H36.2393C41.4086 46.4791 45.6143 42.18 45.6143 36.8957V13.8957C45.6143 8.61148 41.4086 4.3124 36.2393 4.3124ZM9.98926 8.14573H36.2393C39.3405 8.14573 41.8643 10.7256 41.8643 13.8957V15.8124H4.36426V13.8957C4.36426 10.7256 6.88801 8.14573 9.98926 8.14573ZM36.2393 42.6457H9.98926C6.88801 42.6457 4.36426 40.0659 4.36426 36.8957V19.6457H41.8643V36.8957C41.8643 40.0659 39.3405 42.6457 36.2393 42.6457Z" fill="url(#paint0_linear_54_43)"/>
</g>
<defs>
<linearGradient id="paint0_linear_54_43" x1="23.1143" y1="0.479065" x2="23.1143" y2="46.4791" gradientUnits="userSpaceOnUse">
<stop stop-color="#C2D205"/>
<stop offset="1" stop-color="#3C870E"/>
</linearGradient>
<clipPath id="clip0_54_43">
<rect width="45" height="46" fill="white" transform="translate(0.614258 0.479004)"/>
</clipPath>
</defs>
</svg>
