<svg viewBox="0 0 49 41" fill="none" xmlns="http://www.w3.org/2000/svg">
<path id="Vector" d="M15.3722 23.4573C15.2236 23.3607 15.4911 23.5901 15.3722 23.4573V23.4573ZM33.5081 23.5499C33.3931 23.6766 33.6507 23.4573 33.5081 23.5499V23.5499ZM48.2391 20.3027C46.4515 32.0842 36.2509 40.9666 24.5125 40.9666C12.774 40.9666 2.5755 32.0822 0.785894 20.3027C0.556001 18.7817 1.03561 17.2889 2.10184 16.2045C3.17005 15.1221 4.63859 14.6353 6.13686 14.8687C9.22259 15.3515 12.1081 16.4379 14.6806 17.9971C15.1879 12.5027 17.3243 6.87751 20.6281 2.62644C21.5655 1.41932 22.9825 0.727234 24.5164 0.727234C26.0504 0.727234 27.4674 1.41932 28.4048 2.62644C31.7046 6.87148 33.839 12.4967 34.3444 17.9951C36.9148 16.4359 39.8004 15.3495 42.8861 14.8666C44.3844 14.6333 45.8549 15.1201 46.9231 16.2025C47.9894 17.2869 48.469 18.7797 48.2391 20.2987V20.3027ZM22.4197 36.8302C21.8687 31.6074 19.1675 26.787 15.3722 23.4573C12.6789 21.2141 9.14529 19.4114 5.53438 18.8461C5.49276 18.8401 5.13207 18.8461 4.90614 19.0513C4.80308 19.1439 4.65445 19.3632 4.70399 19.6911C6.0893 28.8189 13.5232 35.8645 22.4197 36.8302ZM24.5125 29.344C25.8938 26.125 27.945 23.242 30.4937 20.8962C30.6047 15.4098 28.6506 9.43862 25.2953 5.11914C25.0377 4.78919 24.6671 4.75298 24.5184 4.75298C24.3698 4.75298 23.9992 4.78919 23.7415 5.11914C20.3803 9.44466 18.4223 15.4179 18.5313 20.8962C21.0799 23.242 23.1311 26.125 24.5125 29.344ZM44.1188 19.0513C43.8731 18.7858 43.5322 18.8401 43.4886 18.8461C39.8737 19.4114 36.2034 21.3006 33.5081 23.5478C29.7108 26.8775 27.1563 31.6054 26.6053 36.8302C35.5018 35.8645 42.9357 28.8189 44.321 19.6891C44.3705 19.3612 44.212 19.1519 44.1188 19.0513Z" fill="url(#paint0_linear_54_42)"/>
<defs>
<linearGradient id="paint0_linear_54_42" x1="24.5125" y1="0.727234" x2="24.5125" y2="40.9666" gradientUnits="userSpaceOnUse">
<stop stop-color="#C2D205"/>
<stop offset="1" stop-color="#3C870E"/>
</linearGradient>
</defs>
</svg>
