<svg  viewBox="0 0 48 50" fill="none" xmlns="http://www.w3.org/2000/svg">
<g id="user-graduate 1" clip-path="url(#clip0_54_37)">
<path id="Vector" d="M43.9433 10.0283C43.9453 8.28805 42.9029 6.7892 41.2877 6.20979L28.4751 1.62072C25.7283 0.63289 22.698 0.630878 19.9492 1.60663L6.98006 6.21381C5.35891 6.79122 4.3125 8.28805 4.3125 10.0323C4.3125 11.7746 5.36089 13.2714 6.98204 13.8468L12.226 15.7038V19.0857C12.226 25.743 17.5591 31.1569 24.117 31.1569C30.6749 31.1569 36.0081 25.743 36.0081 19.0857V15.7018L39.9717 14.2975V23.1075C39.9717 24.22 40.8596 25.1193 41.9536 25.1193C43.0476 25.1193 43.9354 24.22 43.9354 23.1075C43.9354 23.1075 43.9433 10.0464 43.9433 10.0283ZM32.0444 19.0857C32.0444 23.5239 28.489 27.1332 24.117 27.1332C19.7451 27.1332 16.1897 23.5239 16.1897 19.0857V17.1061L19.8799 18.4138C21.2453 18.8966 22.6802 19.138 24.115 19.138C25.5499 19.138 26.9847 18.8966 28.3522 18.4138L32.0444 17.1061V19.0857ZM27.0462 14.6134C25.1555 15.2813 23.0746 15.2813 21.1839 14.6134L8.28807 10.0122L21.2572 5.40705C23.1638 4.72905 25.2586 4.73509 27.1552 5.4151L39.9658 10.0384L27.0462 14.6134ZM40.6158 46.8455C40.8358 47.9339 40.1481 48.9982 39.076 49.2235C38.9412 49.2517 38.8064 49.2658 38.6736 49.2658C37.7541 49.2658 36.9276 48.6119 36.7334 47.6603C36.0279 44.1878 33.9073 41.1097 30.9147 39.2185L25.6391 45.5639C24.886 46.4793 23.3481 46.4793 22.595 45.5639L17.3808 39.2145C14.3267 41.1097 12.2062 44.1878 11.5006 47.6603C11.2806 48.7487 10.2303 49.4408 9.1581 49.2235C8.08592 48.9982 7.39624 47.9339 7.61821 46.8455C8.54373 42.2967 11.3163 38.2729 15.2225 35.8044C16.919 34.73 19.1545 35.0901 20.4249 36.6353L24.117 41.1318L27.8072 36.6353C29.0756 35.0881 31.3131 34.728 33.0076 35.8003C36.9197 38.2729 39.6903 42.2987 40.6158 46.8455Z" fill="url(#paint0_linear_54_37)"/>
</g>
<defs>
<linearGradient id="paint0_linear_54_37" x1="24.1279" y1="0.877319" x2="24.1279" y2="49.2658" gradientUnits="userSpaceOnUse">
<stop stop-color="#C2D205"/>
<stop offset="1" stop-color="#3C870E"/>
</linearGradient>
<clipPath id="clip0_54_37">
<rect width="47.5642" height="48.2848" fill="white" transform="translate(0.334961 0.979004)"/>
</clipPath>
</defs>
</svg>
