<svg width="389" height="368" viewBox="0 0 389 368" fill="none" xmlns="http://www.w3.org/2000/svg">
<g opacity="0.4">
<g opacity="0.9">
<path d="M153.241 365.007C164.41 366.462 207.665 369.044 215.75 365.452C229.598 359.301 232.19 357.196 236.462 360.476C237.382 361.184 238.099 362.001 239.064 361.035C240.1 359.998 239.366 359.748 241.592 361.808C242.436 362.59 242.811 362.037 243.618 361.685C244.314 362.305 245.503 363.649 245.887 362.651C246.531 360.976 245.491 359.127 244.686 357.289C246.523 355.716 245.958 356.086 244.426 352.745C241.442 346.247 241.664 347.281 244.122 347.097C244.25 346.654 244.418 346.311 244.443 345.95C244.781 341.113 245.646 336.461 242.559 332.382C239.831 328.778 240.888 328.289 239.046 327.39C231.325 323.619 224.07 322.804 222.152 318.715C221.25 316.795 211.27 304.555 210.512 302.706C208.513 297.835 205.056 296.099 198.965 284.822C198.469 283.903 196.034 279.986 195.007 277.302C189.66 263.33 178.989 223.601 174.587 213.958C169.842 203.563 166.924 193.046 157.389 194.549C153.182 195.212 146.591 194.497 142.979 192.208C139.579 190.052 135.631 185.414 135.221 181.765C134.905 178.955 134.543 172.282 135.562 171.538C140.43 167.982 140.585 163.642 141.635 158.336C142.527 153.824 142.167 155.697 143.626 154.603C146.736 152.266 148.069 147.517 147.963 146.325C147.836 144.914 147.184 144.753 145.629 143.762C146.489 141.935 147.406 140.506 146.749 138.722C144.875 133.631 153.305 128.261 148.525 120.136C145.966 115.785 142.967 114.09 138.81 112.463C138.37 111.899 138.681 111.156 138.056 110.83C137.312 110.443 137.339 109.804 137.392 109.179C137.62 106.442 136.075 105.025 134.318 103.031C135.527 97.9964 131.788 98.2444 128.801 94.5414C127.736 93.2224 125.059 92.7931 123.183 93.8024C121.307 92.7941 118.631 93.2224 117.566 94.5414C114.579 98.2444 110.839 97.9964 112.049 103.031C110.292 105.024 108.747 106.442 108.975 109.179C109.027 109.804 109.053 110.443 108.31 110.83C107.686 111.156 107.997 111.899 107.556 112.463C103.399 114.089 100.399 115.785 97.8411 120.136C93.062 128.262 101.492 133.631 99.6177 138.722C98.9607 140.506 99.8789 141.935 100.737 143.762C99.1824 144.753 98.5305 144.914 98.404 146.325C98.2977 147.516 99.6309 152.266 102.741 154.603C104.199 155.697 103.839 153.824 104.732 158.336C105.782 163.642 105.937 167.982 110.804 171.538C111.822 172.282 111.46 178.955 111.145 181.765C110.735 185.414 106.788 190.052 103.387 192.208C99.7746 194.497 93.1835 195.212 88.9763 194.549C79.4404 193.046 76.5229 203.563 71.7782 213.958C67.3756 223.601 56.7059 263.33 51.3589 277.302C50.3314 279.986 47.8978 283.903 47.4007 284.822C41.3087 296.099 37.8526 297.835 35.8533 302.706C35.0941 304.555 25.1147 316.795 24.2138 318.715C22.2955 322.805 15.0392 323.619 7.31933 327.39C5.47794 328.29 6.53479 328.778 3.80662 332.382C0.719073 336.461 1.5846 341.113 1.92271 345.95C1.94802 346.311 2.11505 346.654 2.24361 347.097C4.7015 347.281 4.92421 346.247 1.93992 352.745C0.406269 356.086 -0.1586 355.716 1.67976 357.289C0.874969 359.127 -0.165686 360.975 0.478143 362.651C0.862821 363.649 2.05127 362.305 2.74774 361.685C3.55455 362.037 3.92911 362.59 4.77338 361.808C6.99944 359.748 6.26552 359.998 7.30213 361.035C8.26787 362.002 8.98357 361.184 9.90477 360.476C14.1757 357.196 16.7682 359.301 30.6166 365.452C38.702 369.043 81.957 366.461 93.1258 365.007C111.697 362.589 134.678 362.589 153.246 365.007H153.241ZM154.258 271.352C152.036 262.305 158.771 257.123 157.891 240.958C157.383 231.615 157.285 234.321 157.68 232.255C159.227 235.069 160.443 239.768 161.224 242.883C166.803 265.172 162.977 247.388 173.695 279.35C175.323 284.208 176.946 284.239 181.548 292.867C189.859 308.452 197.552 311.552 202.344 318.862C177.556 323.897 160.048 294.925 154.258 271.351V271.352ZM44.0186 318.863C48.8109 311.552 56.5034 308.453 64.8145 292.868C69.4154 284.24 71.0382 284.209 72.668 279.351C83.3863 247.389 79.5598 265.173 85.1397 242.884C85.9191 239.769 87.1359 235.07 88.6838 232.256C89.0786 234.322 88.9804 231.616 88.4722 240.959C87.5925 257.123 94.3274 262.306 92.1054 271.353C88.3335 286.714 73.9071 324.936 44.0196 318.864L44.0186 318.863ZM239.645 340.629C238.046 339.966 236.915 339.159 236.14 337.768C233.553 333.13 231.29 330.487 232.933 331.028C236.472 332.196 236.352 332.658 239.393 335.424C240.524 336.452 240.113 336.993 239.646 340.629H239.645ZM6.97009 335.423C10.0101 332.658 9.8906 332.195 13.4307 331.027C15.0736 330.486 12.8101 333.129 10.2237 337.767C9.44822 339.158 8.31747 339.965 6.71802 340.628C6.25034 336.992 5.83934 336.45 6.97009 335.423Z" fill="url(#paint0_linear_673_148)"/>
</g>
<g opacity="0.6">
<path d="M339.741 294.629C326.495 298.128 317.966 305.123 303.594 313.437L297.336 315.919C296.865 315.583 297.216 315.828 295.539 314.664V314.64C288.826 309.279 287.119 303.534 282.819 295.538C274.083 279.205 279.535 258.072 286.256 240.811C289.69 237.587 293.24 229.473 291.793 222.043C292.308 219.907 292.701 218.017 292.897 217.01C296.961 206.716 291.774 196.965 297.267 185.608C314.368 149.956 308.292 125.891 311.486 111.36C313.143 103.357 309.42 100.655 300.534 92.0126C263.215 55.3458 260.456 54.8783 257.706 44.2084C247.216 3.6727 252.342 1.44871 247.638 0.430849C245.255 2.59101 246.288 6.86348 245.574 9.78464C245.156 6.56834 245.378 0.454783 244.691 0.234619C239.235 1.37054 243.253 -0.122742 233.738 44.2323C231.574 54.3471 227.523 55.9233 220.256 63.2845C179.651 103.964 179.762 101.922 180.572 109.418C181.539 118.676 182.699 140.272 184.182 149.807C189.206 182.363 198.716 182.889 198.155 200.238C198.046 204.521 197.885 213.538 199.776 217.425C200.194 219.266 200.709 221.255 201.199 223.047C200.689 228.704 202.658 236.869 206.358 240.654L208.678 248.27C209.253 255.724 226.053 280.573 197.038 316.65C172.455 302.705 173.709 302.397 166.98 298.898C147.338 288.711 117.515 285.246 106.227 304.275C98.1916 317.794 107.475 326.045 119.905 334.253C136.826 345.389 150.371 348.001 166.355 348.234L171.978 349.207L167.004 351.047C166.021 351.023 164.917 351.635 164.009 352.2C153.944 358.669 158.565 369.231 165.728 365.262C166.612 364.77 167.446 364.181 168.503 363.518C172.824 366.342 173.66 366.488 178.791 365.309C206.792 359.086 203.642 368.081 222.453 364.475C231.501 362.825 225.988 363.542 238.587 361.381H238.611L240.518 361.064C252.075 363.063 244.842 361.715 258.871 364.82C293.001 372.423 276.87 359.359 311.3 365.458C315.45 366.195 319.771 368.256 323.406 363.912C331.376 368.891 335.86 363.896 333.647 357.872C332.088 353.615 326.778 352.77 326.549 349.63C351.249 347.623 368.469 339.75 384.208 325.658C395.691 315.297 388.277 281.858 339.736 294.622L339.741 294.629ZM204.199 104.852C258.858 41.083 241.997 39.1637 245.552 17.8382C246.08 22.342 245.972 41.4308 245.97 41.6781C245.882 54.9836 274.434 85.4923 288.502 105.859C292.991 112.271 291.727 117.323 288.994 124.592C284.753 135.736 285.337 146.32 283.222 154.179C281.684 159.912 277.405 163.773 272.516 173.306C271.395 174.183 268.922 175.879 268.072 176.399C268.048 176.326 268.048 176.252 268.022 176.179C253.274 171.272 263.286 155.208 267.384 141.781C267.976 143.135 269.487 143.135 270.478 142.223C271.212 141.578 271.198 141.446 275.045 133.139C278.193 126.215 273.132 124.351 270.87 124.815C272.548 110.526 271.898 96.4366 258.346 90.9325C258.076 90.7602 257.807 90.6135 257.536 90.4906C257.406 70.0473 232.018 71.7735 233.716 91.2756C215.587 99.4504 221.617 115.774 222.37 124.887C220.135 124.195 216.936 125.966 216.722 128.89C216.521 131.306 223.104 147.882 225.637 141.559C229.452 154.278 239.028 173.358 223.843 176.35C223.819 176.449 223.819 176.522 223.794 176.619C222.619 175.697 221.561 174.702 220.111 172.862C217.575 165.728 209.206 160.614 207.686 147.352C204.689 119.268 195.8 114.964 204.199 104.851V104.852Z" fill="url(#paint1_linear_673_148)"/>
</g>
</g>
<defs>
<linearGradient id="paint0_linear_673_148" x1="123.183" y1="93.2449" x2="123.183" y2="367.274" gradientUnits="userSpaceOnUse">
<stop offset="0.02" stop-color="#96DB7E"/>
<stop offset="1" stop-color="#79AA62"/>
</linearGradient>
<linearGradient id="paint1_linear_673_148" x1="246.083" y1="0.234619" x2="246.083" y2="367.273" gradientUnits="userSpaceOnUse">
<stop stop-color="#93D47B"/>
<stop offset="1" stop-color="#699357"/>
</linearGradient>
</defs>
</svg>
