<svg viewBox="0 0 40 40" fill="none" xmlns="http://www.w3.org/2000/svg">
<g id="iconoir:yoga">
<g id="Group">
<path id="Vector" d="M24.1349 24.5215L25.5255 27.5116C25.5255 27.5116 31.7764 28.8389 31.7764 31.996C31.7764 34.239 28.9953 34.239 28.9953 34.239H21.5889L17.9424 32.2132" stroke="black" stroke-width="2.431" stroke-linecap="round" stroke-linejoin="round"/>
<path id="Vector_2" d="M15.8026 24.5215L14.4137 27.5116C14.4137 27.5116 8.16113 28.8389 8.16113 31.996C8.16113 34.239 10.9422 34.239 10.9422 34.239H14.297L17.9435 32.2132L22.4003 29.377" stroke="black" stroke-width="2.431" stroke-linecap="round" stroke-linejoin="round"/>
<path id="Vector_3" d="M5.38281 26.0156C5.38281 26.0156 8.8559 25.2685 10.9401 24.5214C13.0226 14.0551 19.2719 14.8022 19.9688 14.8022C20.6657 14.8022 26.915 14.0551 28.9975 24.5214C31.0817 25.2669 34.5548 26.0156 34.5548 26.0156M19.9688 11.5496C20.8285 11.5496 21.6529 11.2081 22.2608 10.6002C22.8686 9.99233 23.2101 9.16788 23.2101 8.30823C23.2101 7.44857 22.8686 6.62413 22.2608 6.01626C21.6529 5.40839 20.8285 5.06689 19.9688 5.06689C19.1092 5.06689 18.2847 5.40839 17.6768 6.01626C17.069 6.62413 16.7275 7.44857 16.7275 8.30823C16.7275 9.16788 17.069 9.99233 17.6768 10.6002C18.2847 11.2081 19.1092 11.5496 19.9688 11.5496Z" stroke="black" stroke-width="2.431" stroke-linecap="round" stroke-linejoin="round"/>
</g>
</g>
</svg>
